<?xml version="1.0" encoding="utf-8"?>
<!-- Generator: Adobe Illustrator 26.5.0, SVG Export Plug-In . SVG Version: 6.00 Build 0)  -->
<svg version="1.1" id="Layer_1" xmlns="http://www.w3.org/2000/svg" xmlns:xlink="http://www.w3.org/1999/xlink" x="0px" y="0px"
	 viewBox="0 0 2271.6 496.6" style="enable-background:new 0 0 2271.6 496.6;" xml:space="preserve">
<style type="text/css">
	.st0{fill:#011428;}
	.st1{fill:#F24444;}
	.st2{fill:#124CA1;}
	.st3{fill:#575756;}
</style>
<g>
	<g>
		<path class="st0" d="M777.3,271.2H639.2c-1.8,0-3.1,1.6-2.9,3.4c1.7,12.6,6.5,22.6,14.6,30c8.7,8,19.5,12.1,32.3,12.1
			c17.8,0,30.7-7.4,38.6-22.2c0.5-1,1.5-1.6,2.6-1.6h47.8c2.1,0,3.4,2.1,2.7,3.9c-6,17.1-16.5,31.5-31.4,42.7
			c-16.1,12.2-35.9,18.3-59.3,18.3c-18.9,0-36-4.2-51-12.6c-15.1-8.4-26.8-20.3-35.2-35.7c-8.4-15.4-12.6-33.1-12.6-53.3
			c0-20.4,4.1-38.2,12.4-53.6c8.3-15.4,19.9-27.2,34.8-35.6c14.9-8.3,32-12.4,51.5-12.4c18.7,0,35.5,4,50.3,12.1
			c14.8,8,26.3,19.5,34.5,34.3c8.1,14.8,12.2,31.8,12.2,51c0,6.1-0.4,11.7-1.1,16.7C780.1,270.2,778.8,271.2,777.3,271.2z
			 M726.7,237.8c1.8,0,3.1-1.5,2.9-3.2c-0.9-11.3-5.5-20.5-13.7-27.5c-9-7.7-20-11.6-33-11.6c-12.3,0-22.6,3.7-31.1,11.2
			c-7.6,6.8-12.6,16-14.9,27.5c-0.4,1.9,1.1,3.5,2.9,3.5L726.7,237.8L726.7,237.8z"/>
		<path class="st0" d="M965.5,122c19.8,10.2,35.1,24.7,45.9,43.5c10.8,18.8,16.2,40.7,16.2,65.6s-5.4,46.6-16.2,65.2
			c-10.8,18.6-26.1,33-45.9,43.1c-19.8,10.2-42.7,15.3-68.8,15.3H813c-1.7,0-2.9-1.3-2.9-2.9V109.6c0-1.7,1.3-2.9,2.9-2.9h83.7
			C922.7,106.8,945.7,111.9,965.5,122z M955.4,291.1c14.2-14.2,21.4-34.2,21.4-60.1c0-25.8-7.2-46-21.4-60.6s-34.3-21.9-60.4-21.9
			h-32.2c-1.7,0-2.9,1.3-2.9,2.9v157.9c0,1.7,1.3,2.9,2.9,2.9H895C921,312.5,941.2,305.4,955.4,291.1z"/>
		<path class="st0" d="M1093.6,345.3c-15.2-8.4-27-20.3-35.7-35.7c-8.6-15.4-12.9-33.1-12.9-53.3c0-20.1,4.4-37.9,13.3-53.3
			c8.9-15.4,21-27.3,36.5-35.7c15.4-8.4,32.5-12.6,51.5-12.6c18.9,0,36.2,4.2,51.5,12.6s27.5,20.3,36.5,35.7
			c8.9,15.4,13.3,33.1,13.3,53.3c0,20.1-4.6,37.9-13.7,53.3c-9.1,15.4-21.5,27.3-36.9,35.7c-15.5,8.4-32.8,12.6-52,12.6
			C1125.8,358,1108.8,353.8,1093.6,345.3z M1170.1,308c7.9-4.4,14.3-11,19-19.7c4.7-8.7,7.2-19.4,7.2-31.9
			c0-18.7-4.9-33.1-14.7-43.1c-9.8-10.1-21.9-15.1-36.1-15.1s-26.1,5-35.7,15.1c-9.6,10.1-14.4,24.5-14.4,43.1
			c0,18.7,4.7,33.1,14,43.1c9.3,10.1,21.2,15.1,35.4,15.1C1153.7,314.6,1162.2,312.4,1170.1,308z"/>
		<path class="st0" d="M1276.2,202.8c8.3-15.3,19.8-27.1,34.5-35.6c14.7-8.4,31.5-12.6,50.5-12.6c24.4,0,44.6,6.1,60.6,18.3
			c15.1,11.5,25.5,27.3,31.2,47.5c0.5,1.9-0.9,3.8-2.8,3.8h-47.7c-1.3,0-2.4-0.8-2.7-2c-2.9-7.6-7.4-13.6-13.7-18.1
			c-6.8-4.9-15.1-7.3-25.1-7.3c-14.2,0-25.5,5.2-33.7,15.5c-8.3,10.3-12.4,24.9-12.4,43.9c0,18.7,4.1,33.2,12.4,43.5
			c8.3,10.3,19.5,15.5,33.7,15.5c19.4,0,32.3-8.3,38.7-25.1c0.5-1.2,1.6-2,2.7-2h47.7c2,0,3.4,2,2.8,3.8
			c-5.7,19.5-16.2,35.2-31.3,46.9c-16.1,12.5-36.3,18.8-60.4,18.8c-18.9,0-35.8-4.2-50.5-12.6c-14.7-8.4-26.2-20.3-34.5-35.6
			c-8.3-15.3-12.4-33.1-12.4-53.5C1263.8,236,1267.9,218.1,1276.2,202.8z"/>
		<path class="st0" d="M1543.9,198.8c-1.7,0-2.9,1.3-2.9,2.9V294c0,6.7,1.6,11.5,4.8,14.4s8.6,4.4,16.2,4.4h20.2
			c1.7,0,2.9,1.3,2.9,2.9v36.1c0,1.7-1.3,2.9-2.9,2.9h-28.3c-41.9,0-62.9-20.4-62.9-61.2v-91.9c0-1.7-1.3-2.9-2.9-2.9h-17.5
			c-1.7,0-2.9-1.3-2.9-2.9v-35c0-1.7,1.3-2.9,2.9-2.9h17.5c1.7,0,2.9-1.3,2.9-2.9v-42.7c0-1.7,1.3-2.9,2.9-2.9h44.2
			c1.7,0,2.9,1.3,2.9,2.9v42.7c0,1.7,1.3,2.9,2.9,2.9h38.1c1.7,0,2.9,1.3,2.9,2.9v35c0,1.7-1.3,2.9-2.9,2.9L1543.9,198.8
			L1543.9,198.8z"/>
		<path class="st0" d="M1649.6,345.3c-15.2-8.4-27-20.3-35.7-35.7c-8.6-15.4-12.9-33.1-12.9-53.3c0-20.1,4.4-37.9,13.3-53.3
			c8.9-15.4,21-27.3,36.5-35.7c15.4-8.4,32.5-12.6,51.5-12.6c18.9,0,36.2,4.2,51.5,12.6c15.4,8.4,27.5,20.3,36.5,35.7
			c8.9,15.4,13.3,33.1,13.3,53.3c0,20.1-4.6,37.9-13.7,53.3c-9.1,15.4-21.5,27.3-36.9,35.7c-15.5,8.4-32.8,12.6-52,12.6
			S1664.7,353.8,1649.6,345.3z M1726.2,308c7.9-4.4,14.3-11,19-19.7c4.7-8.7,7.2-19.4,7.2-31.9c0-18.7-4.9-33.1-14.7-43.1
			c-9.8-10.1-21.9-15.1-36.1-15.1c-14.2,0-26.1,5-35.7,15.1c-9.6,10.1-14.4,24.5-14.4,43.1c0,18.7,4.7,33.1,14,43.1
			c9.3,10.1,21.2,15.1,35.4,15.1C1709.8,314.6,1718.2,312.4,1726.2,308z"/>
		<path class="st0" d="M1907.4,163.9c9.5-5.5,20.3-8.4,32.3-8.8c1.7-0.1,3,1.3,3,2.9v46.3c0,1.7-1.3,2.9-2.9,2.9h-10.2
			c-15.7,0-27.4,3.6-35.4,11c-7.9,7.3-11.9,20.1-11.9,38.4v95.1c0,1.7-1.3,2.9-2.9,2.9h-43.8c-1.7,0-2.9-1.3-2.9-2.9V160.9
			c0-1.7,1.3-2.9,2.9-2.9h43.8c1.7,0,2.9,1.3,2.9,2.9v18.2c0,2.7,3.5,4,5.2,1.9C1893,174,1899.6,168.3,1907.4,163.9z"/>
		<path class="st0" d="M2176.6,162l-119.4,284c-0.5,1.1-1.6,1.8-2.7,1.8H2008c-2.2,0-3.5-2.2-2.7-4.1l40.4-92.8
			c0.3-0.7,0.3-1.6,0-2.3L1968.9,162c-0.8-2,0.6-4.1,2.7-4.1h49.3c1.3,0,2.4,0.8,2.7,2l47.3,128.1c1,2.5,4.6,2.5,5.5,0l48-128.2
			c0.4-1.2,1.6-2,2.7-2h46.5C2175.9,158,2177.3,160.1,2176.6,162z"/>
	</g>
	<g>
		<g>
			<path class="st1" d="M272.8,160.9c-8.9,40.5-49.7,82.8-89.8,93.2c-24.2,6.3-47.7,5.5-69-0.7c-1.7-0.5-2.7-2.1-2.7-3.7v-62.8
				c16.4,11.4,38.1,15.6,60.6,8.2c18.8-6.2,33.9-21,40.5-39.7c6.8-19.3,4.8-38.2-2.9-53.7h60c1.8,0,3.4,1.3,3.8,3
				C277,122.4,277.1,141.4,272.8,160.9z"/>
			<path class="st2" d="M209.2,56.4v45.1c-11.1-21.9-33.8-36.8-59.9-36.8h-9c-32,0-58,26-58,58v212.8c0,31.7,25.7,57.3,57.3,57.3
				h30.3c25.8,0,46.6,20.9,46.6,46.6v12.9h-80.5c-62.6,0-113.4-50.8-113.4-113.4V127.3c0-49.7,30.2-94.8,76.5-112.7
				c22.5-8.7,44.8-11.2,65.5-8.7C190.1,9,209.2,30.8,209.2,56.4z"/>
		</g>
	</g>
	<g>
		<g>
			<path class="st1" d="M221.9,296.5c8.9-40.5,49.7-82.8,89.8-93.2c24.2-6.3,47.7-5.5,69,0.7c1.7,0.5,2.7,2.1,2.7,3.7v62.8
				c-16.4-11.4-38.1-15.6-60.6-8.2c-18.8,6.2-33.9,21-40.5,39.7c-6.8,19.3-4.8,38.2,2.9,53.7h-60c-1.8,0-3.4-1.3-3.8-3
				C217.7,335,217.6,316,221.9,296.5z"/>
			<path class="st2" d="M285.6,401v-45.1c11.1,21.9,33.8,36.8,59.9,36.8h9c32,0,58-26,58-58V121.9c0-31.7-25.7-57.3-57.3-57.3h-76.9
				V51.6c0-25.8,20.9-46.6,46.6-46.6h33.8C421.3,5,472,55.7,472,118.4V330c0,49.7-30.2,94.8-76.5,112.7
				c-22.5,8.7-44.8,11.2-65.5,8.7C304.7,448.4,285.6,426.7,285.6,401z"/>
		</g>
	</g>
	<g>
		<g>
			<path class="st3" d="M661.6,472.1c-0.6,0-1.1-0.2-1.4-0.7l-19.5-26.7h-11.9V471c0,0.7-0.4,1.1-1.1,1.1h-6.1
				c-0.8,0-1.2-0.4-1.2-1.1v-67.9c0-0.7,0.4-1.1,1.2-1.1h22c15.4,0,24.7,7.9,24.7,21.5c0,11.2-6.9,18.6-18.4,20.6l19.9,26.7
				c0.6,0.8,0.2,1.4-0.7,1.4L661.6,472.1L661.6,472.1z M628.8,409.6v27.5h15c10.6,0,16.1-4.5,16.1-13.7s-5.5-13.8-16.1-13.8H628.8z"
				/>
			<path class="st3" d="M718.8,449.4c0,0.8-0.4,1.2-1.1,1.2h-32v4.1c0,7.4,5.5,11.3,12.7,11.3c6.8,0,11.4-2.6,15-5.5
				c0.6-0.4,1.2-0.3,1.6,0.3l2.8,3.7c0.5,0.6,0.4,1.1-0.2,1.6c-4.9,4.1-11.2,7.1-19.4,7.1c-10.6,0-20.7-6.1-20.7-18.4v-14.9
				c0-13.4,10-19.5,20.8-19.5c10.7,0,20.5,6.1,20.5,19.5L718.8,449.4L718.8,449.4z M711,439.8c0-8.3-5.5-12.2-12.6-12.2
				c-7.4,0-12.6,3.8-12.6,12.2v4.1H711L711,439.8L711,439.8z"/>
			<path class="st3" d="M730,472.1c-0.7,0-1.1-0.4-1.1-1.1v-45.5c0-0.6,0.2-1.1,0.8-1.4c5.6-2.4,12.1-3.8,18.8-3.8
				c13.1,0,22.1,6.2,22.1,21.2V471c0,0.7-0.4,1.1-1.2,1.1h-5.8c-0.7,0-1.1-0.4-1.1-1.1v-29.3c0-10.2-5.2-14.1-14-14.1
				c-4.1,0-8.5,0.8-11.6,1.8V471c0,0.7-0.4,1.1-1.2,1.1H730z"/>
			<path class="st3" d="M823.9,453.9c0,11.5-8.2,19.2-21.6,19.2c-13.2,0-21.6-7.7-21.6-19.2v-14.1c0-11.5,8.3-19.5,21.6-19.5
				c13.3,0,21.6,8,21.6,19.5V453.9z M788.9,453.9c0,7.4,4.7,12.1,13.4,12.1c8.8,0,13.5-4.7,13.5-12.1v-14.1
				c0-7.4-4.7-12.2-13.5-12.2c-8.7,0-13.4,4.8-13.4,12.2V453.9z"/>
			<path class="st3" d="M844.6,472.1c-0.7,0-1.1-0.3-1.2-1l-14.6-48.3c-0.2-0.8,0.1-1.4,0.9-1.4h6.1c0.6,0,1.1,0.3,1.3,1l6.5,23.2
				c1.1,4.1,3.4,13.4,4.4,17.3h0.2c1.3-5.3,2.6-11.1,4.1-15.9l7.4-23.8c0.2-0.7,0.6-1,1.2-1h6.5c0.6,0,1,0.3,1.2,1l7.4,23.8
				c1.5,4.8,2.9,10.6,4.2,15.9h0.1c1-3.8,3.3-13.2,4.4-17.3l6.6-23.2c0.1-0.7,0.6-1,1.2-1h6.1c0.8,0,1.2,0.6,0.9,1.4l-14.5,48.3
				c-0.2,0.7-0.6,1-1.3,1h-6.9c-0.7,0-1.1-0.3-1.2-1l-8.2-26.7c-1.3-4.3-2.4-9-3-12.2H864c-0.8,3.2-2,7.9-3.1,12.2l-8.2,26.7
				c-0.1,0.7-0.5,1-1.2,1H844.6z"/>
			<path class="st3" d="M908,472.1c-0.7,0-1.1-0.4-1.1-1.1v-45.5c0-0.6,0.2-1.1,0.8-1.4c5.6-2.4,12.1-3.8,18.8-3.8
				c13.1,0,22,6.2,22,21.2V471c0,0.7-0.4,1.1-1.2,1.1h-5.8c-0.7,0-1.1-0.4-1.1-1.1v-29.3c0-10.2-5.2-14.1-14-14.1
				c-4.1,0-8.5,0.8-11.6,1.8V471c0,0.7-0.4,1.1-1.2,1.1H908z"/>
			<path class="st3" d="M1000,449.4c0,0.8-0.4,1.2-1.1,1.2h-32v4.1c0,7.4,5.5,11.3,12.7,11.3c6.8,0,11.4-2.6,15-5.5
				c0.6-0.4,1.2-0.3,1.6,0.3l2.8,3.7c0.5,0.6,0.4,1.1-0.2,1.6c-4.9,4.1-11.2,7.1-19.4,7.1c-10.6,0-20.7-6.1-20.7-18.4v-14.9
				c0-13.4,10-19.5,20.8-19.5c10.7,0,20.5,6.1,20.5,19.5L1000,449.4L1000,449.4z M992.1,439.8c0-8.3-5.5-12.2-12.6-12.2
				c-7.3,0-12.6,3.8-12.6,12.2v4.1h25.3V439.8z"/>
			<path class="st3" d="M1041.9,403c0-0.7,0.4-1.1,1.2-1.1h5.8c0.7,0,1.1,0.4,1.1,1.1v65.4c0,0.6-0.2,1-0.9,1.3
				c-5.6,2.2-12.6,3.4-18.9,3.4c-12.7,0-21.9-6.4-21.9-21.2V441c0-13.1,8.8-20.8,21.3-20.8c4.6,0,8.9,1.3,12.3,3L1041.9,403
				L1041.9,403z M1016.4,452c0,10.3,5.2,14.1,13.9,14.1c4.2,0,8.5-0.7,11.6-1.9V431c-3.1-2.2-7.2-3.5-11.7-3.5
				c-8.8,0-13.8,4.2-13.8,13.6V452z"/>
			<path class="st3" d="M1086.5,472.1c-0.8,0-1.2-0.4-1.2-1.1v-67.9c0-0.7,0.4-1.1,1.2-1.1h23.9c15.9,0,25.5,9.1,25.5,25.2v20.1
				c0,15.9-9.6,24.8-25.5,24.8L1086.5,472.1L1086.5,472.1z M1093.8,464.2h16.6c10.9,0,17-5.7,17-17v-20.1c0-11.6-6.1-17.5-17-17.5
				h-16.6V464.2z"/>
			<path class="st3" d="M1189.2,453.9c0,11.5-8.2,19.2-21.6,19.2c-13.2,0-21.6-7.7-21.6-19.2v-14.1c0-11.5,8.3-19.5,21.6-19.5
				c13.3,0,21.6,8,21.6,19.5V453.9z M1154.2,453.9c0,7.4,4.7,12.1,13.4,12.1c8.8,0,13.5-4.7,13.5-12.1v-14.1
				c0-7.4-4.7-12.2-13.5-12.2c-8.7,0-13.4,4.8-13.4,12.2V453.9z"/>
			<path class="st3" d="M1219.1,473.1c-13,0-21-7.8-21-18.9v-14.9c0-11.2,8-19,20.9-19c5.8,0,11.1,1.7,16,4.9
				c0.7,0.5,0.7,1.1,0.3,1.7l-2.5,4c-0.4,0.5-1,0.7-1.6,0.3c-3.6-2.4-7.6-3.6-12-3.6c-8.4,0-13,4.8-13,11.8v14.9
				c0,7.1,4.7,11.8,12.9,11.8c4.5,0,8.9-1.5,13.1-4.3c0.6-0.5,1.2-0.4,1.6,0.2l2.8,4c0.4,0.6,0.4,1.2-0.2,1.6
				C1231.4,471.2,1226,473.1,1219.1,473.1z"/>
			<path class="st3" d="M1252.6,455.4c0,6.5,3.3,10.3,9.4,10.3c1.1,0,2.9-0.1,4.7-0.2c0.8,0,1.2,0.4,1.2,1.1v5.2
				c0,0.6-0.3,1.1-1,1.2c-1.8,0.1-4,0.2-5.3,0.2c-9.8,0-17.1-5.3-17.1-17.3v-45.7c0-0.8,0.4-1.2,1.2-1.2h5.1c0.6,0,1,0.4,1.1,1.1
				l0.7,11.9h12.7c0.7,0,1.1,0.4,1.1,1.1v4.9c0,0.8-0.4,1.2-1.1,1.2h-12.7L1252.6,455.4L1252.6,455.4z"/>
			<path class="st3" d="M1316,453.9c0,11.5-8.2,19.2-21.6,19.2c-13.2,0-21.6-7.7-21.6-19.2v-14.1c0-11.5,8.3-19.5,21.6-19.5
				c13.3,0,21.6,8,21.6,19.5V453.9z M1281,453.9c0,7.4,4.7,12.1,13.4,12.1c8.8,0,13.5-4.7,13.5-12.1v-14.1c0-7.4-4.7-12.2-13.5-12.2
				c-8.7,0-13.4,4.8-13.4,12.2V453.9z"/>
			<path class="st3" d="M1327.6,472.1c-0.7,0-1.1-0.4-1.1-1.1v-45.8c0-0.6,0.2-1.1,0.8-1.3c4.9-2.4,11-3.6,16.8-3.6
				c3.2,0,6.6,0.3,10.1,0.8c0.7,0.1,1,0.6,1,1.3v4.8c0,0.8-0.4,1.2-1.2,1c-2.7-0.4-5.9-0.7-8.8-0.7c-4,0-7.9,0.9-10.6,2V471
				c0,0.7-0.4,1.1-1.2,1.1H1327.6z"/>
			<path class="st3" d="M1378.4,473.1c-6.8,0-13.5-2-19.4-6.3c-0.6-0.4-0.6-1-0.3-1.6l2.6-4.5c0.4-0.7,0.9-0.8,1.6-0.3
				c4.7,3.5,10.1,5.5,15.7,5.5c6.6,0,11.6-2.7,11.6-7.8c0-5.5-6.1-6.8-11.6-7.8c-7.1-1.5-19.1-4.2-19.1-15.6
				c0-10,9.5-14.4,19.3-14.4c6.2,0,11.7,1.6,17.1,4.6c0.7,0.3,0.8,0.9,0.4,1.5l-2.6,4.4c-0.3,0.6-0.9,0.8-1.5,0.4
				c-4-2.2-8.8-3.6-13.7-3.6c-6.9,0-11,2.7-11,7.2c0,5.4,5.8,6.9,12.7,8.2c7.8,1.6,18.1,3.8,18.1,14.8
				C1398.2,467.7,1389.8,473.1,1378.4,473.1z"/>
			<path class="st3" d="M1409.5,482.6c-0.1,0.6-0.6,0.9-1.3,0.9h-4.8c-0.8,0-1.1-0.5-1-1.3l5.2-19.4c0.1-0.6,0.5-1,1.2-1h6.2
				c0.8,0,1.2,0.6,1,1.3L1409.5,482.6z"/>
			<path class="st3" d="M1463.7,420.3c12.1,0,19.5,6.4,19.5,19v29.4c0,0.6-0.3,1.1-0.9,1.3c-4.6,1.7-11.6,3.1-18.9,3.1
				c-11,0-21.1-4.4-21.1-16.1c0-10.4,8.5-15.6,21.1-15.6c4,0,8.4,0.6,11.8,1.2v-3.1c0-7.9-3.2-12-11.8-12c-5.5,0-10.5,1.6-13.9,3.6
				c-0.6,0.4-1.1,0.3-1.5-0.3l-2.8-4.1c-0.3-0.6-0.4-1,0-1.4C1449.8,422.3,1456.2,420.3,1463.7,420.3z M1463.4,466
				c4.4,0,8.8-0.9,11.8-1.8v-14.7c-3.1-0.6-7.7-1.2-11.8-1.2c-8.9,0-13,3.3-13,8.7C1450.4,462.9,1455.9,466,1463.4,466z"/>
			<path class="st3" d="M1535.2,473.1c-13,0-21-7.8-21-18.9v-14.9c0-11.2,8-19,20.9-19c5.8,0,11.1,1.7,16,4.9
				c0.7,0.5,0.7,1.1,0.3,1.7l-2.5,4c-0.4,0.5-1,0.7-1.6,0.3c-3.6-2.4-7.6-3.6-12-3.6c-8.4,0-13,4.8-13,11.8v14.9
				c0,7.1,4.7,11.8,12.9,11.8c4.5,0,8.9-1.5,13.1-4.3c0.6-0.5,1.2-0.4,1.6,0.2l2.8,4c0.4,0.6,0.4,1.2-0.2,1.6
				C1547.5,471.2,1542.1,473.1,1535.2,473.1z"/>
			<path class="st3" d="M1575.5,473.1c-9.4,0-14.8-6.3-14.8-18v-52c0-0.7,0.4-1.1,1.2-1.1h5.8c0.7,0,1.1,0.4,1.1,1.1v52.1
				c0,7.6,2.6,10.6,7.6,10.6c1.2,0,2.8-0.1,4.4-0.3c0.8,0,1.2,0.4,1.2,1.1v5c0,0.7-0.4,1.2-1,1.3
				C1579.3,473,1577.3,473.1,1575.5,473.1z"/>
			<path class="st3" d="M1592.5,412c-2.7,0-4.9-2.1-4.9-4.8c0-2.8,2.2-4.8,4.9-4.8c2.7,0,4.8,2,4.8,4.8
				C1597.3,409.9,1595.2,412,1592.5,412z M1589.5,472.1c-0.8,0-1.2-0.4-1.2-1.1v-48.4c0-0.7,0.4-1.2,1.2-1.2h5.8
				c0.7,0,1.1,0.5,1.1,1.2V471c0,0.7-0.4,1.1-1.1,1.1H1589.5z"/>
			<path class="st3" d="M1628.1,473.1c-13,0-21-7.8-21-18.9v-14.9c0-11.2,8-19,20.9-19c5.8,0,11.1,1.7,16,4.9
				c0.7,0.5,0.7,1.1,0.3,1.7l-2.5,4c-0.4,0.5-1,0.7-1.6,0.3c-3.6-2.4-7.6-3.6-12-3.6c-8.4,0-13,4.8-13,11.8v14.9
				c0,7.1,4.7,11.8,12.9,11.8c4.5,0,8.9-1.5,13.1-4.3c0.6-0.5,1.2-0.4,1.6,0.2l2.8,4c0.4,0.6,0.4,1.2-0.2,1.6
				C1640.3,471.2,1634.9,473.1,1628.1,473.1z"/>
			<path class="st3" d="M1687.1,472.1c-0.6,0-1.1-0.2-1.5-0.7l-18.6-22.6l-5,4.8V471c0,0.7-0.4,1.1-1.2,1.1h-5.8
				c-0.7,0-1.1-0.4-1.1-1.1v-67.9c0-0.7,0.4-1.1,1.1-1.1h5.8c0.8,0,1.2,0.4,1.2,1.1v40.6l22.1-21.7c0.4-0.5,0.9-0.6,1.4-0.6h7.2
				c0.9,0,1.2,0.7,0.5,1.4l-20.8,20.5l22.5,27.4c0.6,0.8,0.3,1.4-0.6,1.4L1687.1,472.1L1687.1,472.1z"/>
			<path class="st3" d="M1738.5,420.3c12.1,0,19.5,6.4,19.5,19v29.4c0,0.6-0.3,1.1-0.9,1.3c-4.6,1.7-11.6,3.1-18.9,3.1
				c-11,0-21.1-4.4-21.1-16.1c0-10.4,8.5-15.6,21.1-15.6c4,0,8.4,0.6,11.8,1.2v-3.1c0-7.9-3.2-12-11.8-12c-5.5,0-10.5,1.6-13.9,3.6
				c-0.6,0.4-1.1,0.3-1.5-0.3l-2.8-4.1c-0.3-0.6-0.4-1,0-1.4C1724.6,422.3,1731,420.3,1738.5,420.3z M1738.2,466
				c4.4,0,8.8-0.9,11.8-1.8v-14.7c-3.1-0.6-7.7-1.2-11.8-1.2c-8.9,0-13,3.3-13,8.7C1725.2,462.9,1730.7,466,1738.2,466z"/>
			<path class="st3" d="M1780.2,472.1c-0.7,0-1.1-0.3-1.2-1l-14.6-48.3c-0.2-0.8,0.1-1.4,0.9-1.4h6.1c0.6,0,1.1,0.3,1.3,1l6.5,23.2
				c1.1,4.1,3.4,13.4,4.4,17.3h0.2c1.3-5.3,2.6-11.1,4.1-15.9l7.4-23.8c0.2-0.7,0.6-1,1.2-1h6.5c0.6,0,1,0.3,1.2,1l7.4,23.8
				c1.5,4.8,2.9,10.6,4.2,15.9h0.1c1-3.8,3.3-13.2,4.4-17.3l6.6-23.2c0.1-0.7,0.6-1,1.2-1h6.1c0.8,0,1.2,0.6,0.9,1.4l-14.5,48.3
				c-0.2,0.7-0.6,1-1.3,1h-6.9c-0.7,0-1.1-0.3-1.2-1l-8.2-26.7c-1.3-4.3-2.4-9-3-12.2h-0.3c-0.8,3.2-2,7.9-3.1,12.2l-8.2,26.7
				c-0.1,0.7-0.5,1-1.2,1H1780.2z"/>
			<path class="st3" d="M1859.5,420.3c12.1,0,19.5,6.4,19.5,19v29.4c0,0.6-0.3,1.1-0.9,1.3c-4.6,1.7-11.6,3.1-18.9,3.1
				c-11,0-21.1-4.4-21.1-16.1c0-10.4,8.5-15.6,21.1-15.6c4,0,8.4,0.6,11.8,1.2v-3.1c0-7.9-3.2-12-11.8-12c-5.5,0-10.5,1.6-13.9,3.6
				c-0.6,0.4-1.1,0.3-1.5-0.3l-2.8-4.1c-0.3-0.6-0.4-1,0-1.4C1845.6,422.3,1852,420.3,1859.5,420.3z M1859.2,466
				c4.4,0,8.8-0.9,11.8-1.8v-14.7c-3.1-0.6-7.7-1.2-11.8-1.2c-8.9,0-13,3.3-13,8.7C1846.2,462.9,1851.7,466,1859.2,466z"/>
			<path class="st3" d="M1923.2,422.6c0-0.7,0.4-1.2,1.1-1.2h5.8c0.8,0,1.2,0.5,1.2,1.2v48.1c0,13.2-6.5,20.9-20.7,21
				c-8,0-13.8-2.5-18.9-6.8c-0.5-0.5-0.5-1-0.1-1.7l2.9-4c0.4-0.6,1-0.8,1.6-0.3c4,3,8.6,5.4,14.5,5.5c8.4-0.1,12.9-4.1,12.6-14.2
				v-2.3c-3.5,1.5-7.9,2.5-12.2,2.5c-10.6,0-20.8-6.3-20.8-19.5v-28.4c0-0.7,0.4-1.2,1.1-1.2h5.8c0.8,0,1.2,0.5,1.2,1.2v28
				c0,9,6.2,12.4,13.7,12.4c4.1,0,8.2-1,11.2-2.6L1923.2,422.6L1923.2,422.6z"/>
		</g>
	</g>
	<g>
		<g>
			<path class="st0" d="M2195.6,104.5c0.5,0,0.8,0.3,0.8,0.8v3.8c0,0.5-0.4,0.8-0.8,0.8h-14.7v43c0,0.5-0.4,0.8-0.8,0.8h-4.2
				c-0.5,0-0.8-0.3-0.8-0.8v-43h-14.7c-0.5,0-0.8-0.3-0.8-0.8v-3.8c0-0.5,0.3-0.8,0.8-0.8H2195.6z"/>
			<path class="st0" d="M2203.4,153.6c-0.6,0-0.8-0.3-0.8-0.8v-47.6c0-0.5,0.3-0.8,0.8-0.8h5.2c0.4,0,0.7,0.1,0.9,0.6l10.7,19.4
				c1.8,3.1,4.2,8.2,5.5,10.9h0.2c1.3-2.6,3.8-7.6,5.5-10.8L2242,105c0.1-0.4,0.5-0.6,0.9-0.6h5.2c0.5,0,0.8,0.3,0.8,0.8v47.6
				c0,0.5-0.3,0.8-0.8,0.8h-4.3c-0.5,0-0.8-0.3-0.8-0.8v-20.8c0-5.8,0.2-12.7,0.4-18.6l-0.1-0.1c-1.9,3.7-4,7.7-6.3,12.1l-8.6,16
				c-0.2,0.4-0.6,0.6-1,0.6h-3.6c-0.4,0-0.8-0.2-0.9-0.6l-8.6-16c-2.4-4.3-4.5-8.3-6.3-12.1l-0.1,0.1c0.1,5.9,0.4,12.8,0.4,18.6
				v20.8c0,0.5-0.3,0.8-0.8,0.8L2203.4,153.6L2203.4,153.6z"/>
		</g>
	</g>
</g>
</svg>
